<svg xmlns="http://www.w3.org/2000/svg" xmlns:xlink="http://www.w3.org/1999/xlink" width="21.88525390625" height="21.885162353515625" viewBox="0 0 21.88525390625 21.885162353515625" fill="none">
<path d="M10.9426 0C4.89917 0 0 4.89917 0 10.9426C0 16.986 4.89917 21.8852 10.9426 21.8852C16.986 21.8852 21.8852 16.986 21.8852 10.9426C21.8852 4.89915 16.986 0 10.9426 0ZM15.288 14.2032C15.5874 14.5028 15.5874 14.9886 15.288 15.2878C14.9881 15.5875 14.5026 15.5875 14.2027 15.2878L10.9479 12.033L7.69289 15.2878C7.39324 15.5875 6.90769 15.5875 6.60781 15.2878C6.30835 14.9886 6.30835 14.5028 6.60781 14.2032L9.86304 10.9475L6.60781 7.69268C6.30835 7.39346 6.30835 6.90728 6.60781 6.60762C6.90767 6.3084 7.39321 6.3084 7.69289 6.60762L10.9479 9.86287L14.2027 6.60762C14.5026 6.3084 14.9881 6.3084 15.288 6.60762C15.5874 6.90728 15.5874 7.39351 15.288 7.69268L12.0328 10.9475L15.288 14.2032L15.288 14.2032Z"   fill="#FFFFFF" >
</path>
</svg>
