<svg xmlns="http://www.w3.org/2000/svg" xmlns:xlink="http://www.w3.org/1999/xlink" width="22.96240234375" height="19.98028564453125" viewBox="0 0 22.96240234375 19.98028564453125" fill="none">
<path d="M22.4978 16.4536C23.5961 18.3607 22.6703 19.9803 20.5313 19.9803L2.48784 19.9803C0.290386 19.9803 -0.635364 18.4192 0.463845 16.4536L9.48559 1.47487C10.5838 -0.491625 12.3769 -0.491625 13.4761 1.47487L22.4978 16.4536ZM10.7621 5.22291L10.7621 12.8896C10.7621 12.9013 10.7624 12.9131 10.7629 12.9249C10.7635 12.9366 10.7644 12.9483 10.7655 12.96C10.7667 12.9717 10.7682 12.9834 10.7699 12.995C10.7716 13.0067 10.7736 13.0183 10.7759 13.0298C10.7782 13.0413 10.7808 13.0528 10.7836 13.0642C10.7865 13.0756 10.7896 13.087 10.793 13.0982C10.7965 13.1095 10.8001 13.1206 10.8041 13.1317C10.8081 13.1428 10.8123 13.1538 10.8168 13.1646C10.8213 13.1755 10.8261 13.1863 10.8311 13.1969C10.8361 13.2075 10.8414 13.218 10.8469 13.2284C10.8525 13.2388 10.8583 13.249 10.8644 13.2591C10.8704 13.2692 10.8767 13.2791 10.8832 13.2889C10.8898 13.2987 10.8965 13.3083 10.9035 13.3177C10.9105 13.3272 10.9178 13.3364 10.9252 13.3455C10.9327 13.3546 10.9404 13.3636 10.9483 13.3723C10.9562 13.381 10.9643 13.3895 10.9726 13.3978C10.9809 13.4061 10.9894 13.4143 10.9982 13.4221C11.0069 13.43 11.0158 13.4377 11.0249 13.4452C11.034 13.4526 11.0432 13.4599 11.0527 13.4669C11.0621 13.4739 11.0717 13.4807 11.0815 13.4872C11.0913 13.4937 11.1012 13.5 11.1113 13.5061C11.1214 13.5121 11.1316 13.5179 11.142 13.5235C11.1524 13.529 11.1629 13.5343 11.1735 13.5393C11.1842 13.5443 11.1949 13.5491 11.2058 13.5536C11.2167 13.5581 11.2276 13.5623 11.2387 13.5663C11.2498 13.5703 11.2609 13.574 11.2722 13.5774C11.2835 13.5808 11.2948 13.5839 11.3062 13.5868C11.3176 13.5897 11.3291 13.5922 11.3406 13.5945C11.3522 13.5968 11.3637 13.5988 11.3754 13.6005C11.387 13.6023 11.3987 13.6037 11.4104 13.6049C11.4221 13.606 11.4338 13.6069 11.4456 13.6075C11.4573 13.608 11.4691 13.6083 11.4808 13.6083C11.4926 13.6083 11.5044 13.608 11.5161 13.6075C11.5279 13.6069 11.5396 13.606 11.5513 13.6049C11.563 13.6037 11.5747 13.6023 11.5863 13.6005C11.5979 13.5988 11.6095 13.5968 11.6211 13.5945C11.6326 13.5922 11.6441 13.5897 11.6555 13.5868C11.6669 13.5839 11.6782 13.5808 11.6895 13.5774C11.7008 13.574 11.7119 13.5703 11.723 13.5663C11.7341 13.5623 11.745 13.5581 11.7559 13.5536C11.7668 13.5491 11.7775 13.5443 11.7881 13.5393C11.7988 13.5343 11.8093 13.529 11.8197 13.5235C11.83 13.5179 11.8403 13.5121 11.8503 13.5061C11.8605 13.5 11.8704 13.4937 11.8801 13.4872C11.8899 13.4807 11.8996 13.4739 11.909 13.4669C11.9184 13.4599 11.9277 13.4526 11.9368 13.4452C11.9459 13.4377 11.9548 13.43 11.9635 13.4221C11.9722 13.4143 11.9808 13.4061 11.9891 13.3978C11.9974 13.3895 12.0055 13.381 12.0134 13.3723C12.0213 13.3636 12.029 13.3546 12.0364 13.3455C12.0439 13.3364 12.0511 13.3272 12.0582 13.3177C12.0652 13.3083 12.0719 13.2987 12.0785 13.2889C12.085 13.2791 12.0913 13.2692 12.0973 13.2591C12.1034 13.249 12.1092 13.2388 12.1147 13.2284C12.1203 13.218 12.1256 13.2075 12.1306 13.1969C12.1356 13.1863 12.1404 13.1755 12.1449 13.1646C12.1494 13.1538 12.1536 13.1428 12.1576 13.1317C12.1615 13.1206 12.1652 13.1095 12.1686 13.0982C12.1721 13.087 12.1752 13.0756 12.178 13.0642C12.1809 13.0528 12.1835 13.0413 12.1858 13.0298C12.1881 13.0183 12.1901 13.0067 12.1918 12.995C12.1935 12.9834 12.195 12.9717 12.1961 12.96C12.1973 12.9483 12.1982 12.9366 12.1987 12.9249C12.1993 12.9131 12.1996 12.9013 12.1996 12.8896L12.1996 5.22291C12.1996 5.21116 12.1993 5.19939 12.1987 5.18764C12.1982 5.1759 12.1973 5.16417 12.1961 5.15247C12.195 5.14077 12.1935 5.12909 12.1918 5.11745C12.1901 5.10582 12.1881 5.09423 12.1858 5.08268C12.1835 5.07116 12.1809 5.05969 12.178 5.04827C12.1752 5.03686 12.1721 5.02552 12.1686 5.01427C12.1652 5.00302 12.1615 4.99185 12.1576 4.98078C12.1536 4.96971 12.1494 4.95872 12.1449 4.94785C12.1404 4.937 12.1356 4.92624 12.1306 4.91562C12.1256 4.90497 12.1203 4.89446 12.1147 4.88411C12.1092 4.87373 12.1034 4.86349 12.0973 4.8534C12.0913 4.84332 12.085 4.83337 12.0785 4.8236C12.0719 4.81383 12.0652 4.80421 12.0582 4.79476C12.0511 4.7853 12.0439 4.77605 12.0364 4.76695C12.029 4.75785 12.0213 4.74896 12.0134 4.74022C12.0055 4.73151 11.9974 4.723 11.9891 4.71468C11.9808 4.70635 11.9722 4.69824 11.9635 4.69036C11.9548 4.68245 11.9459 4.67477 11.9368 4.66732C11.9277 4.65986 11.9184 4.65263 11.909 4.64562C11.8996 4.63861 11.8899 4.63183 11.8801 4.62529C11.8704 4.61875 11.8605 4.61247 11.8503 4.60642C11.8403 4.60038 11.83 4.59459 11.8197 4.58904C11.8093 4.58349 11.7988 4.57821 11.7881 4.57318C11.7775 4.56815 11.7668 4.56339 11.7559 4.55887C11.745 4.55438 11.7341 4.55016 11.723 4.54618C11.7119 4.54221 11.7008 4.53852 11.6895 4.53511C11.6782 4.5317 11.6669 4.52855 11.6555 4.5257C11.6441 4.52285 11.6326 4.52026 11.6211 4.51797C11.6095 4.51568 11.5979 4.51368 11.5863 4.51195C11.5747 4.51022 11.563 4.50876 11.5513 4.50762C11.5396 4.50647 11.5279 4.5056 11.5161 4.50503C11.5044 4.50445 11.4926 4.50416 11.4808 4.50416C11.4691 4.50416 11.4573 4.50445 11.4456 4.50503C11.4338 4.5056 11.4221 4.50647 11.4104 4.50762C11.3987 4.50876 11.387 4.51022 11.3754 4.51195C11.3637 4.51368 11.3522 4.51568 11.3406 4.51797C11.3291 4.52026 11.3176 4.52285 11.3062 4.5257C11.2948 4.52855 11.2835 4.5317 11.2722 4.53511C11.2609 4.53852 11.2498 4.54221 11.2387 4.54618C11.2276 4.55016 11.2167 4.55438 11.2058 4.55887C11.1949 4.56339 11.1842 4.56815 11.1735 4.57318C11.1629 4.57821 11.1524 4.58349 11.142 4.58904C11.1316 4.59459 11.1214 4.60038 11.1113 4.60642C11.1012 4.61247 11.0913 4.61875 11.0815 4.62529C11.0717 4.63183 11.0621 4.63861 11.0527 4.64562C11.0432 4.65263 11.034 4.65986 11.0249 4.66732C11.0158 4.67477 11.0069 4.68245 10.9982 4.69036C10.9894 4.69824 10.9809 4.70635 10.9726 4.71468C10.9643 4.723 10.9562 4.73151 10.9483 4.74022C10.9404 4.74896 10.9327 4.75785 10.9252 4.76695C10.9178 4.77605 10.9105 4.7853 10.9035 4.79476C10.8965 4.80421 10.8898 4.81383 10.8832 4.8236C10.8767 4.83337 10.8704 4.84332 10.8644 4.8534C10.8583 4.86349 10.8525 4.87373 10.8469 4.88411C10.8414 4.89446 10.8361 4.90497 10.8311 4.91562C10.8261 4.92624 10.8213 4.937 10.8168 4.94785C10.8123 4.95872 10.8081 4.96971 10.8041 4.98078C10.8001 4.99185 10.7965 5.00302 10.793 5.01427C10.7896 5.02552 10.7865 5.03686 10.7836 5.04827C10.7808 5.05969 10.7782 5.07116 10.7759 5.08268C10.7736 5.09423 10.7716 5.10582 10.7699 5.11745C10.7682 5.12909 10.7667 5.14077 10.7655 5.15247C10.7644 5.16417 10.7635 5.1759 10.7629 5.18764C10.7624 5.19939 10.7621 5.21116 10.7621 5.22291ZM10.7621 15.7646L10.7621 16.7229C10.7621 16.7347 10.7624 16.7464 10.7629 16.7582C10.7635 16.7699 10.7644 16.7817 10.7655 16.7934C10.7667 16.8051 10.7682 16.8167 10.7699 16.8284C10.7716 16.84 10.7736 16.8516 10.7759 16.8631C10.7782 16.8747 10.7808 16.8862 10.7836 16.8976C10.7865 16.909 10.7896 16.9203 10.793 16.9316C10.7965 16.9428 10.8001 16.954 10.8041 16.9651C10.8081 16.9761 10.8123 16.9871 10.8168 16.998C10.8213 17.0088 10.8261 17.0196 10.8311 17.0302C10.8361 17.0408 10.8414 17.0514 10.8469 17.0617C10.8525 17.0721 10.8583 17.0823 10.8644 17.0924C10.8704 17.1025 10.8767 17.1124 10.8832 17.1222C10.8898 17.132 10.8965 17.1416 10.9035 17.1511C10.9105 17.1605 10.9178 17.1698 10.9252 17.1789C10.9327 17.188 10.9404 17.1969 10.9483 17.2056C10.9562 17.2143 10.9643 17.2228 10.9726 17.2312C10.9809 17.2395 10.9894 17.2476 10.9982 17.2555C11.0069 17.2634 11.0158 17.271 11.0249 17.2785C11.034 17.286 11.0432 17.2932 11.0527 17.3002C11.0621 17.3072 11.0717 17.314 11.0815 17.3205C11.0913 17.3271 11.1012 17.3334 11.1113 17.3394C11.1214 17.3455 11.1316 17.3513 11.142 17.3568C11.1524 17.3623 11.1629 17.3676 11.1735 17.3727C11.1842 17.3777 11.1949 17.3825 11.2058 17.387C11.2167 17.3915 11.2276 17.3957 11.2387 17.3997C11.2498 17.4036 11.2609 17.4073 11.2722 17.4107C11.2835 17.4141 11.2948 17.4173 11.3062 17.4201C11.3176 17.423 11.3291 17.4256 11.3406 17.4279C11.3522 17.4302 11.3637 17.4322 11.3754 17.4339C11.387 17.4356 11.3987 17.4371 11.4104 17.4382C11.4221 17.4393 11.4338 17.4402 11.4456 17.4408C11.4573 17.4414 11.4691 17.4417 11.4808 17.4417C11.4926 17.4417 11.5044 17.4414 11.5161 17.4408C11.5279 17.4402 11.5396 17.4393 11.5513 17.4382C11.563 17.4371 11.5747 17.4356 11.5863 17.4339C11.5979 17.4322 11.6095 17.4302 11.6211 17.4279C11.6326 17.4256 11.6441 17.423 11.6555 17.4201C11.6669 17.4173 11.6782 17.4141 11.6895 17.4107C11.7008 17.4073 11.7119 17.4036 11.723 17.3997C11.7341 17.3957 11.745 17.3915 11.7559 17.387C11.7668 17.3825 11.7775 17.3777 11.7881 17.3727C11.7988 17.3676 11.8093 17.3623 11.8197 17.3568C11.83 17.3513 11.8403 17.3455 11.8503 17.3394C11.8605 17.3334 11.8704 17.3271 11.8801 17.3205C11.8899 17.314 11.8996 17.3072 11.909 17.3002C11.9184 17.2932 11.9277 17.286 11.9368 17.2785C11.9459 17.271 11.9548 17.2634 11.9635 17.2555C11.9722 17.2476 11.9808 17.2395 11.9891 17.2312C11.9974 17.2228 12.0055 17.2143 12.0134 17.2056C12.0213 17.1969 12.029 17.188 12.0364 17.1789C12.0439 17.1698 12.0511 17.1605 12.0582 17.1511C12.0652 17.1416 12.0719 17.132 12.0785 17.1222C12.085 17.1124 12.0913 17.1025 12.0973 17.0924C12.1034 17.0823 12.1092 17.0721 12.1147 17.0617C12.1203 17.0514 12.1256 17.0408 12.1306 17.0302C12.1356 17.0196 12.1404 17.0088 12.1449 16.998C12.1494 16.9871 12.1536 16.9761 12.1576 16.9651C12.1615 16.954 12.1652 16.9428 12.1686 16.9316C12.1721 16.9203 12.1752 16.909 12.178 16.8976C12.1809 16.8862 12.1835 16.8747 12.1858 16.8631C12.1881 16.8516 12.1901 16.84 12.1918 16.8284C12.1935 16.8167 12.195 16.8051 12.1961 16.7934C12.1973 16.7817 12.1982 16.7699 12.1987 16.7582C12.1993 16.7464 12.1996 16.7347 12.1996 16.7229L12.1996 15.7646C12.1996 15.7528 12.1993 15.7411 12.1987 15.7293C12.1982 15.7176 12.1973 15.7058 12.1961 15.6941C12.195 15.6824 12.1935 15.6707 12.1918 15.6591C12.1901 15.6475 12.1881 15.6359 12.1858 15.6244C12.1835 15.6128 12.1809 15.6013 12.178 15.5899C12.1752 15.5785 12.1721 15.5672 12.1686 15.5559C12.1652 15.5447 12.1615 15.5335 12.1576 15.5224C12.1536 15.5114 12.1494 15.5004 12.1449 15.4895C12.1404 15.4787 12.1356 15.4679 12.1306 15.4573C12.1256 15.4467 12.1203 15.4361 12.1147 15.4258C12.1092 15.4154 12.1034 15.4051 12.0973 15.3951C12.0913 15.385 12.085 15.375 12.0785 15.3653C12.0719 15.3555 12.0652 15.3459 12.0582 15.3364C12.0511 15.327 12.0439 15.3177 12.0364 15.3086C12.029 15.2995 12.0213 15.2906 12.0134 15.2819C12.0055 15.2732 11.9974 15.2647 11.9891 15.2563C11.9808 15.248 11.9722 15.2399 11.9635 15.232C11.9548 15.2241 11.9459 15.2165 11.9368 15.209C11.9277 15.2015 11.9184 15.1943 11.909 15.1873C11.8996 15.1803 11.8899 15.1735 11.8801 15.167C11.8704 15.1604 11.8605 15.1541 11.8503 15.1481C11.8403 15.142 11.83 15.1362 11.8197 15.1307C11.8093 15.1251 11.7988 15.1199 11.7881 15.1148C11.7775 15.1098 11.7668 15.105 11.7559 15.1005C11.745 15.096 11.7341 15.0918 11.723 15.0878C11.7119 15.0839 11.7008 15.0802 11.6895 15.0768C11.6782 15.0734 11.6669 15.0702 11.6555 15.0674C11.6441 15.0645 11.6326 15.0619 11.6211 15.0597C11.6095 15.0573 11.5979 15.0553 11.5863 15.0536C11.5747 15.0519 11.563 15.0504 11.5513 15.0493C11.5396 15.0482 11.5279 15.0473 11.5161 15.0467C11.5044 15.0461 11.4926 15.0458 11.4808 15.0458C11.4691 15.0458 11.4573 15.0461 11.4456 15.0467C11.4338 15.0473 11.4221 15.0482 11.4104 15.0493C11.3987 15.0504 11.387 15.0519 11.3754 15.0536C11.3637 15.0553 11.3522 15.0573 11.3406 15.0597C11.3291 15.0619 11.3176 15.0645 11.3062 15.0674C11.2948 15.0702 11.2835 15.0734 11.2722 15.0768C11.2609 15.0802 11.2498 15.0839 11.2387 15.0878C11.2276 15.0918 11.2167 15.096 11.2058 15.1005C11.1949 15.105 11.1842 15.1098 11.1735 15.1148C11.1629 15.1199 11.1524 15.1251 11.142 15.1307C11.1316 15.1362 11.1214 15.142 11.1113 15.1481C11.1012 15.1541 11.0913 15.1604 11.0815 15.167C11.0717 15.1735 11.0621 15.1803 11.0527 15.1873C11.0432 15.1943 11.034 15.2015 11.0249 15.209C11.0158 15.2165 11.0069 15.2241 10.9982 15.232C10.9894 15.2399 10.9809 15.248 10.9726 15.2563C10.9643 15.2647 10.9562 15.2732 10.9483 15.2819C10.9404 15.2906 10.9327 15.2995 10.9252 15.3086C10.9178 15.3177 10.9105 15.327 10.9035 15.3364C10.8965 15.3459 10.8898 15.3555 10.8832 15.3653C10.8767 15.375 10.8704 15.385 10.8644 15.3951C10.8583 15.4051 10.8525 15.4154 10.8469 15.4258C10.8414 15.4361 10.8361 15.4467 10.8311 15.4573C10.8261 15.4679 10.8213 15.4787 10.8168 15.4895C10.8123 15.5004 10.8081 15.5114 10.8041 15.5224C10.8001 15.5335 10.7965 15.5447 10.793 15.5559C10.7896 15.5672 10.7865 15.5785 10.7836 15.5899C10.7808 15.6013 10.7782 15.6128 10.7759 15.6244C10.7736 15.6359 10.7716 15.6475 10.7699 15.6591C10.7682 15.6707 10.7667 15.6824 10.7655 15.6941C10.7644 15.7058 10.7635 15.7176 10.7629 15.7293C10.7624 15.7411 10.7621 15.7528 10.7621 15.7646Z"   fill="#FFFFFF" >
</path>
</svg>
